# xmcd CD database file
#
# Track frame offsets:
#	150
#	21810
#	33695
#	48105
#	63512
#	86172
#	103380
#	124485
#	142452
#	163737
#	182515
#
# Disc length: 2706 seconds
#
# Revision: 1
# Processed by: cddbd v1.5.2PL0 Copyright (c) Steve Scherf et al.
# Submitted via: CDex 1.51
#
DISCID=a60a900b
DTITLE=Jimmy Reeves Jr. - Born To Love Me
DYEAR=1900
DGENRE=Blues
TTITLE0=Love That Woman
TTITLE1=Hoo Doo Blues
TTITLE2=Put It All In There
TTITLE3=Born To Love Me
TTITLE4=I Love You Baby
TTITLE5=Bright Lights, Big City
TTITLE6=Baby, What's On Your Mind
TTITLE7=Don't Let That Music Die
TTITLE8=Shame, Shame, Shame
TTITLE9=Honest I Do
TTITLE10=Baby, Whatcha Wan't Me To Do
EXTD=
EXTT0=
EXTT1=
EXTT2=
EXTT3=
EXTT4=
EXTT5=
EXTT6=
EXTT7=
EXTT8=
EXTT9=
EXTT10=
PLAYORDER=
